HIERARCHY
ROOT Hips
{
	OFFSET 0.000000 0.000000 0.000000 
	CHANNELS 6 Xposition Yposition Zposition Zrotation Yrotation Xrotation
	JOINT LeftUpLeg
	{
		OFFSET 1.363060 -1.794630 0.839290 
		CHANNELS 3 Zrotation Yrotation Xrotation
		JOINT LeftLeg
		{
			OFFSET 2.448110 -6.726130 0.000000 
			CHANNELS 3 Zrotation Yrotation Xrotation
			JOINT LeftFoot
			{
				OFFSET 2.562200 -7.039590 0.000000 
				CHANNELS 3 Zrotation Yrotation Xrotation
				JOINT LeftToeBase
				{
					OFFSET 0.157640 -0.433110 2.322550 
					CHANNELS 3 Zrotation Yrotation Xrotation
					End Site
					{
						OFFSET 0.000000 0.000000 0.000000 
					}
				}
			}
		}
	}
	JOINT RightUpLeg
	{
		OFFSET -1.305520 -1.794630 0.839290 
		CHANNELS 3 Zrotation Yrotation Xrotation
		JOINT RightLeg
		{
			OFFSET -2.542530 -6.985550 0.000000 
			CHANNELS 3 Zrotation Yrotation Xrotation
			JOINT RightFoot
			{
				OFFSET -2.568260 -7.056230 0.000000 
				CHANNELS 3 Zrotation Yrotation Xrotation
				JOINT RightToeBase
				{
					OFFSET -0.164730 -0.452590 2.363150 
					CHANNELS 3 Zrotation Yrotation Xrotation
					End Site
					{
						OFFSET 0.000000 0.000000 0.000000 
					}
				}
			}
		}
	}
	JOINT Spine
	{
		OFFSET 0.028270 2.035590 -0.193380 
		CHANNELS 3 Zrotation Yrotation Xrotation
		JOINT Spine1
		{
			OFFSET 0.056720 2.048850 -0.042750 
			CHANNELS 3 Zrotation Yrotation Xrotation
			JOINT Neck1
			{
				OFFSET -0.054170 1.746240 0.172020 
				CHANNELS 3 Zrotation Yrotation Xrotation
				JOINT Head
				{
					OFFSET 0.104070 1.761360 -0.123970 
					CHANNELS 3 Zrotation Yrotation Xrotation
					End Site
					{
						OFFSET 0.000000 0.000000 0.000000 
					}
				}
			}
			JOINT LeftArm
			{
				OFFSET 3.362410 1.200890 -0.311210 
				CHANNELS 3 Zrotation Yrotation Xrotation
				JOINT LeftForeArm
				{
					OFFSET 4.983000 -0.000000 -0.000000 
					CHANNELS 3 Zrotation Yrotation Xrotation
					JOINT LeftHand
					{
						OFFSET 3.483560 -0.000000 -0.000000 
						CHANNELS 3 Zrotation Yrotation Xrotation
						JOINT LeftHandIndex1
						{
							OFFSET 0.715260 -0.000000 -0.000000 
							CHANNELS 3 Zrotation Yrotation Xrotation
							End Site
							{
								OFFSET 0.000000 0.000000 0.000000 
							}
						}
					}
				}
			}
			JOINT RightArm
			{
				OFFSET -3.136600 1.374050 -0.404650 
				CHANNELS 3 Zrotation Yrotation Xrotation
				JOINT RightForeArm
				{
					OFFSET -5.241900 -0.000000 -0.000000 
					CHANNELS 3 Zrotation Yrotation Xrotation
					JOINT RightHand
					{
						OFFSET -3.444170 -0.000000 -0.000000 
						CHANNELS 3 Zrotation Yrotation Xrotation
						JOINT RightHandIndex1
						{
							OFFSET -0.622530 -0.000000 -0.000000 
							CHANNELS 3 Zrotation Yrotation Xrotation
							End Site
							{
								OFFSET 0.000000 0.000000 0.000000 
							}
						}
					}
				}
			}
		}
	}
}
MOTION
Frames: 12
Frame Time: 0.041667
-2.508246 16.835210 7.951216 -0.663451 -4.752800 10.880574 -23.650091 -6.294603 -6.058733 0.471295 9.621988 27.340458 0.035409 10.927430 -22.349260 0.415700 -4.138700 -11.467300 30.925943 9.760679 -12.433145 -0.735141 -11.619778 31.823312 -0.503759 -9.548141 -24.575371 -0.004000 -0.409900 1.126400 1.275705 -1.308750 -5.063472 -4.793711 -0.837568 -2.436022 4.882915 5.796160 15.487935 -3.545500 4.291500 13.168000 -81.854851 10.787764 14.901195 82.729215 -56.129750 -44.628553 -2.587142 3.477427 -31.638323 -7.125000 0.000000 0.000000 83.478799 6.009056 20.623811 -46.755793 49.919998 -16.148175 1.214400 -3.887051 -21.674761 7.125000 0.000000 0.000000 
-2.520577 16.834020 7.974903 -0.827973 -4.907299 10.704639 -23.212888 -5.852497 -7.242909 0.873635 10.390725 29.570008 0.071774 10.259724 -21.803431 0.526900 -4.651600 -12.917500 31.166804 9.527194 -12.007357 -0.690932 -11.488408 31.552834 -0.525006 -9.336073 -24.429123 -0.003400 -0.379200 1.042000 1.270592 -1.345847 -5.052202 -4.956588 -0.870559 -2.494265 4.838237 5.902739 15.606404 -3.559000 4.346200 13.218900 -80.647305 9.973771 16.294875 86.519311 -55.599346 -48.140590 -2.551240 3.383578 -32.544180 -7.125000 0.000000 0.000000 82.986220 7.040174 21.526267 -49.369666 51.232881 -17.780542 1.234300 -3.770777 -22.667056 7.125000 0.000000 0.000000 
-2.532042 16.833263 7.998482 -0.998341 -5.033414 10.516793 -22.740582 -5.511187 -8.479202 1.326949 11.189096 31.933575 0.085867 9.625044 -21.115303 0.633200 -5.091300 -14.169200 31.419532 9.271703 -11.550756 -0.643665 -11.345819 31.259320 -0.541338 -9.156536 -24.285088 -0.003000 -0.352600 0.968800 1.266495 -1.384274 -5.039494 -5.117108 -0.903391 -2.556175 4.791758 6.000968 15.715310 -3.573600 4.395800 13.265200 -79.410281 9.052111 17.718963 90.142293 -54.956774 -51.685977 -2.494139 3.316695 -33.381443 -7.125000 0.000000 0.000000 82.495422 8.078552 22.420232 -52.213009 52.496555 -19.604848 1.262224 -3.649855 -23.654064 7.125000 0.000000 0.000000 
-2.542641 16.832831 8.022170 -1.176274 -5.153116 10.333129 -22.232606 -5.255599 -9.771227 1.828793 12.002863 34.396781 0.075331 9.045370 -20.274416 0.724200 -5.437800 -15.161700 31.678731 9.006674 -11.085920 -0.593497 -11.196793 30.947682 -0.553763 -8.997641 -24.138156 -0.002500 -0.322400 0.885900 1.263336 -1.414957 -5.026684 -5.267555 -0.930899 -2.622783 4.746194 6.091115 15.817362 -3.586700 4.440200 13.308300 -78.151202 8.025207 19.124982 93.589013 -54.255848 -55.229800 -2.414283 3.275166 -34.172019 -7.125000 0.000000 0.000000 81.999841 9.115119 23.320582 -55.311864 53.684557 -21.641640 1.300089 -3.522394 -24.635370 7.125000 0.000000 0.000000 
-2.551619 16.831857 8.046398 -1.362257 -5.259063 10.147677 -21.690412 -5.083847 -11.098743 2.373613 12.815608 36.919325 0.037867 8.540128 -19.264678 0.787400 -5.664700 -15.814600 31.942762 8.717786 -10.612354 -0.542388 -11.042714 30.625980 -0.563200 -8.857762 -23.992063 -0.001800 -0.276700 0.760300 1.261947 -1.443309 -5.011655 -5.408093 -0.955708 -2.680761 4.701099 6.174751 15.912206 -3.597700 4.479400 13.352200 -76.877059 6.884556 20.466189 96.854170 -53.543026 -58.726503 -2.313321 3.257279 -34.931943 -7.125000 0.000000 0.000000 81.492348 10.166035 24.244727 -58.666931 54.757226 -23.899405 1.342186 -3.390612 -25.610165 7.125000 0.000000 0.000000 
-2.559190 16.829910 8.071383 -1.568808 -5.359521 9.966109 -21.101730 -4.978314 -12.450848 2.953419 13.609838 39.455183 -0.021432 8.102376 -18.091846 0.815500 -5.762500 -16.096900 32.223718 8.415228 -10.136652 -0.490110 -10.886832 30.297630 -0.570710 -8.730291 -23.847147 -0.001100 -0.214200 0.588500 1.262957 -1.466262 -4.996205 -5.538306 -0.976711 -2.742870 4.657777 6.252638 15.998788 -3.607500 4.514900 13.390500 -75.597593 5.653818 21.716876 99.963639 -52.845022 -62.155293 -2.194049 3.259655 -35.682096 -7.125000 0.000000 0.000000 80.972254 11.214962 25.217891 -62.286420 55.673902 -26.389854 1.386652 -3.253264 -26.567506 7.125000 0.000000 0.000000 
-2.565463 16.826774 8.097233 -1.802618 -5.469453 9.801078 -20.463243 -4.912574 -13.824728 3.556174 14.369804 41.954692 -0.092157 7.705663 -16.786130 0.808900 -5.739600 -16.030800 32.527948 8.123865 -9.670830 -0.435619 -10.732158 29.963901 -0.575408 -8.617965 -23.700315 -0.000400 -0.133500 0.366700 1.268305 -1.484058 -4.981231 -5.647782 -0.993801 -2.806488 4.613435 6.327512 16.078033 -3.619100 4.547500 13.427600 -74.320924 4.348766 22.862793 102.930811 -52.177920 -65.484136 -2.059481 3.278196 -36.421588 -7.125000 0.000000 0.000000 80.435524 12.270215 26.280538 -66.144061 56.384121 -29.106169 1.424677 -3.111562 -27.506111 7.125000 0.000000 0.000000 
-2.569898 16.822447 8.124706 -2.060718 -5.576731 9.640268 -19.786985 -4.878475 -15.185762 4.167016 15.079867 44.365331 -0.162743 7.329829 -15.413705 0.778500 -5.633400 -15.724400 32.853470 7.832107 -9.198863 -0.380378 -10.577255 29.627326 -0.579519 -8.514306 -23.559387 -0.000000 -0.044300 0.121700 1.277328 -1.500589 -4.965605 -5.744282 -1.009386 -2.871875 4.570513 6.400558 16.149872 -3.631700 4.579000 13.458900 -73.050525 2.984391 23.911249 105.786946 -51.542526 -68.705697 -1.910139 3.307640 -37.185540 -7.125000 0.000000 0.000000 79.888811 13.328585 27.440694 -70.188285 56.841918 -32.028596 1.454380 -2.963875 -28.405629 7.125000 0.000000 0.000000 
-2.572602 16.817039 8.154234 -2.329296 -5.685814 9.486681 -19.097499 -4.859630 -16.516485 4.766315 15.727093 46.630835 -0.212339 6.896576 -14.072555 0.734500 -5.475300 -15.269400 33.183763 7.552593 -8.723025 -0.324565 -10.421988 29.287870 -0.583325 -8.418657 -23.425018 -0.000000 0.042800 -0.117600 1.288103 -1.512659 -4.950719 -5.830879 -1.022028 -2.944566 4.529335 6.466237 16.216638 -3.646700 4.608200 13.483700 -71.789098 1.579224 24.870516 108.546197 -50.930674 -71.810274 -1.763476 3.344036 -37.950322 -7.125000 0.000000 0.000000 79.340173 14.376240 28.701244 -74.371488 57.017972 -35.153917 1.477829 -2.811475 -29.243048 7.125000 0.000000 0.000000 
-2.573251 16.811415 8.186141 -2.597832 -5.802903 9.344068 -18.414035 -4.845334 -17.801845 5.331947 16.300805 48.692211 -0.230279 6.373262 -12.865699 0.689700 -5.309400 -14.793100 33.507365 7.297266 -8.242835 -0.268128 -10.266059 28.944433 -0.586298 -8.333572 -23.298251 -0.000400 0.124000 -0.340600 1.300183 -1.520353 -4.936423 -5.903814 -1.031619 -3.020289 4.491921 6.532117 16.280792 -3.662300 4.638400 13.503700 -70.539099 0.138103 25.756083 111.194770 -50.336179 -74.759980 -1.620067 3.382659 -38.701278 -7.125000 0.000000 0.000000 78.792014 15.416879 30.061588 -78.615557 56.900390 -38.469032 1.492668 -2.659354 -30.023019 7.125000 0.000000 0.000000 
-2.571845 16.806007 8.220969 -2.849613 -5.919218 9.204077 -17.761525 -4.843223 -19.018394 5.840880 16.793730 50.494098 -0.215312 5.751756 -11.848879 0.652000 -5.164900 -14.379500 33.805475 7.055383 -7.752461 -0.212808 -10.108133 28.599898 -0.588817 -8.260241 -23.181770 -0.000900 0.196400 -0.539500 1.312900 -1.529773 -4.922960 -5.963523 -1.041147 -3.102886 4.455690 6.596433 16.341647 -3.681900 4.669600 13.516400 -69.305857 -1.333628 26.568747 113.714332 -49.749219 -77.526614 -1.492859 3.419672 -39.366106 -7.125000 0.000000 0.000000 78.249833 16.451898 31.494355 -82.824661 56.506681 -41.949172 1.496994 -2.512756 -30.733570 7.125000 0.000000 0.000000 
-2.568492 16.801897 8.258933 -3.069594 -6.056980 9.089952 -17.159822 -4.837878 -20.179289 6.270995 17.203226 51.985237 -0.175194 5.064298 -11.031137 0.628100 -5.071200 -14.111900 34.056450 6.848129 -7.278713 -0.157543 -9.950471 28.251918 -0.589811 -8.192378 -23.064243 -0.001600 0.259200 -0.712200 1.323513 -1.528795 -4.911851 -6.009523 -1.044555 -3.189525 4.424276 6.653065 16.404068 -3.702300 4.699400 13.525200 -68.088452 -2.830405 27.337692 116.094013 -49.160740 -80.095122 -1.379813 3.451366 -39.922223 -7.125000 0.000000 0.000000 77.727847 17.475232 32.955051 -86.929944 55.884373 -45.582561 1.487298 -2.379833 -31.387397 7.125000 0.000000 0.000000 
